<svg xmlns="http://www.w3.org/2000/svg" xmlns:xlink="http://www.w3.org/1999/xlink" width="200" zoomAndPan="magnify" viewBox="0 0 150 112.499997" height="150" preserveAspectRatio="xMidYMid meet" version="1.0"><defs><clipPath id="1f68aa7bfe"><path d="M 14.375 20 L 135.339844 20 L 135.339844 85 L 14.375 85 Z M 14.375 20 " clip-rule="nonzero"/></clipPath><clipPath id="368ac401e8"><path d="M 26 0 L 124 0 L 124 112.003906 L 26 112.003906 Z M 26 0 " clip-rule="nonzero"/></clipPath><clipPath id="5ba2257769"><path d="M 14.375 0 L 135.339844 0 L 135.339844 112.003906 L 14.375 112.003906 Z M 14.375 0 " clip-rule="nonzero"/></clipPath></defs><g clip-path="url(#1f68aa7bfe)"><path fill="#6e67b4" d="M 14.421875 62.933594 L 14.375 62.960938 L 14.375 77.050781 L 26.550781 84.097656 L 38.671875 77.078125 L 38.71875 77.050781 L 38.71875 62.960938 L 26.550781 55.914062 Z M 38.53125 76.941406 L 26.550781 83.875 L 14.574219 76.941406 L 14.574219 63.078125 L 26.550781 56.144531 L 38.53125 63.078125 Z M 123.152344 27.964844 L 110.976562 35.011719 L 110.976562 49.101562 L 123.152344 56.144531 L 135.324219 49.101562 L 135.324219 35.011719 Z M 135.128906 48.980469 L 123.152344 55.914062 L 111.171875 48.980469 L 111.171875 35.121094 L 123.152344 28.1875 L 135.128906 35.121094 Z M 74.804688 27.992188 L 74.757812 28.015625 L 74.757812 42.105469 L 86.738281 49.042969 L 74.804688 55.941406 L 74.757812 55.96875 L 74.757812 70.058594 L 86.933594 77.105469 L 99.101562 70.058594 L 99.101562 55.96875 L 87.125 49.035156 L 99.101562 42.101562 L 99.101562 28.011719 L 86.925781 20.964844 Z M 98.90625 56.085938 L 98.90625 69.945312 L 86.925781 76.882812 L 74.949219 69.945312 L 74.949219 56.085938 L 86.925781 49.152344 Z M 98.90625 41.996094 L 86.925781 48.929688 L 74.949219 41.996094 L 74.949219 28.136719 L 86.925781 21.203125 L 98.90625 28.136719 Z M 98.90625 41.996094 " fill-opacity="1" fill-rule="nonzero"/></g><g clip-path="url(#368ac401e8)"><path fill="#ae956d" d="M 38.574219 90.886719 L 38.53125 90.914062 L 38.53125 105.003906 L 50.703125 112.046875 L 62.828125 105.027344 L 62.871094 105.003906 L 62.871094 90.914062 L 50.699219 83.867188 Z M 62.675781 104.890625 L 50.699219 111.824219 L 38.71875 104.890625 L 38.71875 91.03125 L 50.699219 84.097656 L 62.675781 91.03125 Z M 50.75 56.117188 L 50.796875 56.09375 L 50.796875 42.003906 L 38.628906 34.949219 L 26.5 41.96875 L 26.453125 41.996094 L 26.453125 56.085938 L 38.628906 63.132812 Z M 26.648438 42.113281 L 38.628906 35.179688 L 50.601562 42.113281 L 50.601562 55.976562 L 38.628906 62.910156 L 26.648438 55.976562 Z M 111.074219 48.929688 L 98.898438 55.976562 L 98.898438 70.058594 L 111.074219 77.105469 L 123.25 70.058594 L 123.25 55.96875 Z M 123.054688 69.945312 L 111.074219 76.882812 L 99.097656 69.945312 L 99.097656 56.085938 L 111.074219 49.152344 L 123.054688 56.085938 Z M 111.179688 21.140625 L 111.179688 7.050781 L 99.003906 0.0117188 L 86.882812 7.03125 L 86.835938 7.058594 L 86.835938 21.148438 L 99.011719 28.195312 Z M 87.027344 7.167969 L 99.003906 0.234375 L 110.984375 7.167969 L 110.984375 21.03125 L 99.003906 27.964844 L 87.027344 21.03125 Z M 87.027344 7.167969 " fill-opacity="1" fill-rule="nonzero"/></g><path fill="#5ca2a4" d="M 38.628906 62.910156 L 26.503906 69.925781 L 26.460938 69.953125 L 26.460938 84.042969 L 38.632812 91.089844 L 50.710938 84.101562 L 62.832031 77.085938 L 62.878906 77.058594 L 62.878906 62.96875 L 50.699219 55.914062 Z M 38.628906 90.859375 L 26.648438 83.925781 L 26.648438 70.066406 L 38.53125 63.191406 L 38.53125 77.050781 L 50.507812 83.984375 Z M 50.601562 83.816406 L 38.71875 76.941406 L 38.71875 63.191406 L 50.601562 70.066406 Z M 62.675781 76.941406 L 50.796875 83.816406 L 50.796875 69.953125 L 38.824219 63.019531 L 50.703125 56.144531 L 62.683594 63.078125 L 62.683594 76.941406 Z M 111.074219 20.976562 L 98.996094 27.964844 L 86.875 34.984375 L 86.828125 35.011719 L 86.828125 49.101562 L 99.003906 56.144531 L 111.179688 49.101562 L 123.253906 42.113281 L 123.253906 28.023438 Z M 99.003906 55.914062 L 87.027344 48.980469 L 87.027344 35.121094 L 98.90625 28.246094 L 98.90625 42.105469 L 110.882812 49.042969 Z M 110.984375 48.871094 L 99.101562 41.996094 L 99.101562 28.246094 L 110.984375 35.121094 Z M 123.054688 41.996094 L 111.171875 48.871094 L 111.171875 35.011719 L 99.195312 28.074219 L 111.074219 21.203125 L 123.054688 28.136719 Z M 123.054688 41.996094 " fill-opacity="1" fill-rule="nonzero"/><g clip-path="url(#5ba2257769)"><path fill="#9c84ef" d="M 14.421875 90.886719 L 14.375 90.914062 L 14.375 105.003906 L 26.550781 112.046875 L 38.671875 105.027344 L 38.71875 105.003906 L 38.71875 90.914062 L 26.542969 83.867188 Z M 38.53125 104.890625 L 26.550781 111.824219 L 14.574219 104.890625 L 14.574219 91.03125 L 26.550781 84.097656 L 38.53125 91.03125 Z M 50.652344 41.96875 L 50.605469 41.996094 L 50.605469 56.085938 L 62.585938 63.019531 L 50.660156 69.921875 L 50.613281 69.945312 L 50.613281 84.039062 L 62.789062 91.082031 L 74.910156 84.0625 L 74.957031 84.039062 L 74.957031 69.945312 L 62.96875 63.019531 L 74.898438 56.117188 L 74.941406 56.09375 L 74.941406 42.003906 L 62.773438 34.949219 Z M 74.753906 70.066406 L 74.753906 83.925781 L 62.773438 90.859375 L 50.796875 83.925781 L 50.796875 70.066406 L 62.773438 63.132812 Z M 74.753906 55.976562 L 62.773438 62.910156 L 50.796875 55.976562 L 50.796875 42.113281 L 62.773438 35.179688 L 74.753906 42.113281 Z M 123.152344 0.0117188 L 110.976562 7.058594 L 110.976562 21.148438 L 123.152344 28.195312 L 135.324219 21.148438 L 135.324219 7.058594 Z M 135.128906 21.03125 L 123.152344 27.964844 L 111.171875 21.03125 L 111.171875 7.167969 L 123.152344 0.234375 L 135.128906 7.167969 Z M 135.128906 21.03125 " fill-opacity="1" fill-rule="nonzero"/></g></svg>